<?xml version="1.0" encoding="UTF-8" standalone="no"?>
<!DOCTYPE svg PUBLIC "-//W3C//DTD SVG 1.1//EN" "http://www.w3.org/Graphics/SVG/1.1/DTD/svg11.dtd">
<svg width="100%" height="100%" viewBox="0 0 245 158" version="1.1" xmlns="http://www.w3.org/2000/svg" xmlns:xlink="http://www.w3.org/1999/xlink" xml:space="preserve" xmlns:serif="http://www.serif.com/" style="fill-rule:evenodd;clip-rule:evenodd;stroke-linecap:round;stroke-linejoin:round;stroke-miterlimit:1.5;">
    <g transform="matrix(1,0,0,1,-162.5,-154.5)">
        <g transform="matrix(1,0,0,1,15,-3)">
            <path d="M390,198.25C390,177.139 372.861,160 351.75,160L188.25,160C167.139,160 150,177.139 150,198.25L150,274.75C150,295.861 167.139,313 188.25,313L351.75,313C372.861,313 390,295.861 390,274.75L390,198.25Z" style="fill:none;stroke:black;stroke-width:5px;"/>
        </g>
        <g transform="matrix(0.727273,0,0,0.727273,42.5455,58.0909)">
            <path d="M310,180L261,236L276,236L255,290L307,236L292,236L310,180Z" style="fill:none;stroke:black;stroke-width:5px;"/>
        </g>
        <g transform="matrix(27.6992,0,0,1,-5367.94,-9.481)">
            <path d="M200.152,237.526L200.152,239.353L200.597,239.353L200.597,242.398L200.152,242.398L200.152,250L200.042,250L200.042,234.481L200.733,234.481L200.733,237.526L200.152,237.526Z" style="fill-rule:nonzero;"/>
            <path d="M200.783,250L200.783,234.481L200.893,234.481L200.893,246.955L201.284,246.955L201.284,250L200.783,250Z" style="fill-rule:nonzero;"/>
            <path d="M201.932,250L201.932,245.149L201.461,245.149L201.461,250L201.351,250L201.351,239.395C201.351,237.799 201.379,236.546 201.435,235.636C201.483,234.866 201.537,234.481 201.599,234.481L201.787,234.481C201.847,234.481 201.902,234.88 201.952,235.678C202.012,236.616 202.042,237.855 202.042,239.395L202.042,250L201.932,250ZM201.932,240.046C201.932,239.248 201.914,238.611 201.879,238.135C201.848,237.729 201.818,237.526 201.787,237.526L201.599,237.526C201.573,237.526 201.544,237.764 201.513,238.24C201.478,238.786 201.461,239.388 201.461,240.046L201.461,242.104L201.932,242.104L201.932,240.046Z" style="fill-rule:nonzero;"/>
            <path d="M204.064,250L204.064,242.398L203.593,242.398L203.593,250L203.483,250L203.483,234.481L203.593,234.481L203.593,239.353L204.064,239.353L204.064,234.481L204.174,234.481L204.174,250L204.064,250Z" style="fill-rule:nonzero;"/>
            <path d="M204.516,250C204.454,250 204.403,249.804 204.362,249.412C204.3,248.824 204.268,247.872 204.268,246.556L204.268,237.946C204.268,236.686 204.3,235.748 204.363,235.132C204.407,234.698 204.458,234.481 204.516,234.481L204.959,234.481L204.959,237.526L204.516,237.526C204.426,237.526 204.381,238.079 204.381,239.185L204.381,245.611C204.381,246.507 204.426,246.955 204.516,246.955L204.959,246.955L204.959,250L204.516,250Z" style="fill-rule:nonzero;"/>
            <path d="M205.654,250L205.654,245.149L205.183,245.149L205.183,250L205.074,250L205.074,239.395C205.074,237.799 205.102,236.546 205.158,235.636C205.205,234.866 205.26,234.481 205.321,234.481L205.509,234.481C205.57,234.481 205.625,234.88 205.675,235.678C205.734,236.616 205.764,237.855 205.764,239.395L205.764,250L205.654,250ZM205.654,240.046C205.654,239.248 205.637,238.611 205.601,238.135C205.571,237.729 205.54,237.526 205.509,237.526L205.321,237.526C205.295,237.526 205.267,237.764 205.236,238.24C205.201,238.786 205.183,239.388 205.183,240.046L205.183,242.104L205.654,242.104L205.654,240.046Z" style="fill-rule:nonzero;"/>
            <path d="M206.386,250L206.033,244.708L205.967,244.708L205.967,250L205.857,250L205.857,234.481L206.301,234.481C206.371,234.481 206.423,234.628 206.457,234.922C206.517,235.454 206.547,236.462 206.547,237.946L206.547,241.705C206.547,242.699 206.527,243.483 206.487,244.057C206.453,244.519 206.417,244.75 206.377,244.75L206.24,244.75L206.599,250L206.386,250ZM206.437,238.534C206.437,237.862 206.392,237.526 206.301,237.526L205.967,237.526L205.967,241.726L206.377,241.705C206.388,241.705 206.401,241.642 206.414,241.516C206.43,241.348 206.437,241.124 206.437,240.844L206.437,238.534Z" style="fill-rule:nonzero;"/>
            <path d="M207.366,246.556C207.366,247.732 207.334,248.642 207.27,249.286C207.222,249.762 207.172,250 207.119,250L206.675,250L206.675,234.481L207.119,234.481C207.178,234.481 207.229,234.684 207.272,235.09C207.335,235.678 207.366,236.63 207.366,237.946L207.366,246.556ZM207.256,238.66C207.256,237.904 207.212,237.526 207.125,237.526L206.785,237.526L206.785,246.955L207.119,246.955C207.145,246.955 207.172,246.829 207.2,246.577C207.238,246.255 207.256,245.821 207.256,245.275L207.256,238.66Z" style="fill-rule:nonzero;"/>
            <path d="M208.124,246.556C208.124,247.858 208.093,248.803 208.03,249.391C207.986,249.797 207.935,250 207.877,250L207.454,250L207.454,246.955L207.877,246.955C207.969,246.955 208.014,246.563 208.014,245.779L208.014,243.553C208.014,242.783 207.969,242.398 207.877,242.398L207.68,242.398C207.529,242.398 207.454,241.432 207.454,239.5L207.454,237.547C207.454,235.503 207.529,234.481 207.68,234.481L208.101,234.481L208.101,237.526L207.68,237.526C207.646,237.526 207.624,237.547 207.615,237.589C207.582,237.687 207.566,237.96 207.566,238.408L207.566,238.66C207.566,239.136 207.588,239.374 207.632,239.374L207.641,239.374C207.645,239.374 207.65,239.367 207.656,239.353L207.877,239.353C207.939,239.353 207.99,239.535 208.031,239.899C208.093,240.473 208.124,241.432 208.124,242.776L208.124,246.556Z" style="fill-rule:nonzero;"/>
        </g>
    </g>
</svg>
